<svg width="9" height="6" viewBox="0 0 9 6" fill="none" xmlns="http://www.w3.org/2000/svg">
<path d="M8.66667 0.64168C8.51054 0.486471 8.29933 0.399353 8.07917 0.399353C7.85902 0.399353 7.64781 0.486471 7.49167 0.64168L4.50001 3.59168L1.55001 0.64168C1.39387 0.486471 1.18266 0.399353 0.962508 0.399353C0.742353 0.399353 0.531143 0.486471 0.375008 0.64168C0.296901 0.719149 0.234906 0.811317 0.192598 0.912866C0.150291 1.01442 0.12851 1.12334 0.12851 1.23335C0.12851 1.34336 0.150291 1.45228 0.192598 1.55383C0.234906 1.65538 0.296901 1.74754 0.375008 1.82501L3.90834 5.35835C3.98581 5.43645 4.07798 5.49845 4.17953 5.54076C4.28108 5.58306 4.39 5.60485 4.50001 5.60485C4.61002 5.60485 4.71894 5.58306 4.82049 5.54076C4.92204 5.49845 5.01421 5.43645 5.09167 5.35835L8.66667 1.82501C8.74478 1.74754 8.80678 1.65538 8.84908 1.55383C8.89139 1.45228 8.91317 1.34336 8.91317 1.23335C8.91317 1.12334 8.89139 1.01442 8.84908 0.912866C8.80678 0.811317 8.74478 0.719149 8.66667 0.64168Z" fill="#141922"/>
</svg>
