<svg width="144" height="42" viewBox="0 0 144 42" fill="none" xmlns="http://www.w3.org/2000/svg">
<path d="M11.5684 26.6289C9.59424 26.6289 7.80453 26.2126 6.19935 25.3799C4.61262 24.5292 3.35797 23.3616 2.43545 21.8773C1.53138 20.375 1.07935 18.6825 1.07935 16.8C1.07935 14.9175 1.53138 13.2341 2.43545 11.7498C3.35797 10.2475 4.61262 9.07994 6.19935 8.24728C7.80453 7.39655 9.60345 6.97116 11.5961 6.97116C13.2751 6.97116 14.788 7.26079 16.1349 7.84001C17.5002 8.41923 18.6442 9.25189 19.5667 10.3379L16.6884 12.9445C15.3785 11.4602 13.7548 10.7181 11.8175 10.7181C10.6182 10.7181 9.5481 10.9806 8.60713 11.5055C7.66616 12.0123 6.92812 12.7273 6.39308 13.6504C5.87645 14.5736 5.61816 15.6235 5.61816 16.8C5.61816 17.9766 5.87645 19.0264 6.39308 19.9496C6.92812 20.8727 7.66616 21.5968 8.60713 22.1217C9.5481 22.6286 10.6182 22.882 11.8175 22.882C13.7548 22.882 15.3785 22.1307 16.6884 20.6284L19.5667 23.2349C18.6442 24.3391 17.5002 25.1808 16.1349 25.76C14.7696 26.3392 13.2474 26.6289 11.5684 26.6289ZM36.8873 11.6955V26.303H32.7637V24.6196C31.6935 25.8867 30.1437 26.5203 28.1142 26.5203C26.7119 26.5203 25.4388 26.2126 24.2949 25.5971C23.1694 24.9817 22.2838 24.1038 21.638 22.9634C20.9923 21.823 20.6694 20.5017 20.6694 18.9993C20.6694 17.4969 20.9923 16.1755 21.638 15.0352C22.2838 13.8948 23.1694 13.0169 24.2949 12.4015C25.4388 11.786 26.7119 11.4783 28.1142 11.4783C30.0146 11.4783 31.4998 12.0666 32.5699 13.2432V11.6955H36.8873ZM28.8614 23.0449C29.95 23.0449 30.854 22.6829 31.5736 21.9588C32.2932 21.2167 32.653 20.2301 32.653 18.9993C32.653 17.7684 32.2932 16.791 31.5736 16.0669C30.854 15.3248 29.95 14.9537 28.8614 14.9537C27.7544 14.9537 26.8411 15.3248 26.1215 16.0669C25.4019 16.791 25.0422 17.7684 25.0422 18.9993C25.0422 20.2301 25.4019 21.2167 26.1215 21.9588C26.8411 22.6829 27.7544 23.0449 28.8614 23.0449ZM45.894 26.5203C44.6577 26.5203 43.4491 26.3755 42.2683 26.0858C41.0875 25.7781 40.1465 25.398 39.4454 24.9455L40.8845 21.9045C41.5487 22.3208 42.3513 22.6647 43.2925 22.9363C44.2335 23.1897 45.1559 23.3164 46.0601 23.3164C47.8867 23.3164 48.8 22.8729 48.8 21.986C48.8 21.5696 48.5509 21.271 48.0527 21.09C47.5546 20.9089 46.7887 20.7551 45.7557 20.6284C44.5379 20.4474 43.5321 20.2392 42.7388 20.0039C41.9454 19.7686 41.2535 19.3523 40.6631 18.7549C40.0911 18.1576 39.8052 17.3069 39.8052 16.2027C39.8052 15.2795 40.0727 14.465 40.6078 13.759C41.1613 13.035 41.9547 12.4739 42.9879 12.0756C44.0398 11.6774 45.2757 11.4783 46.6966 11.4783C47.7483 11.4783 48.7905 11.596 49.824 11.8313C50.8757 12.0485 51.7427 12.3562 52.4255 12.7544L50.9864 15.7683C49.6761 15.0442 48.2465 14.6822 46.6966 14.6822C45.7738 14.6822 45.0819 14.8089 44.621 15.0623C44.1596 15.3157 43.9291 15.6415 43.9291 16.0398C43.9291 16.4923 44.1782 16.809 44.6763 16.9901C45.1745 17.1711 45.9676 17.343 47.0564 17.5059C48.2742 17.705 49.2705 17.9223 50.0454 18.1576C50.8203 18.3748 51.4936 18.7821 52.0657 19.3794C52.6374 19.9767 52.9237 20.8094 52.9237 21.8773C52.9237 22.7824 52.6469 23.5879 52.0934 24.2938C51.5399 24.9998 50.7278 25.5518 49.6579 25.9501C48.6063 26.3302 47.3513 26.5203 45.894 26.5203ZM64.6374 11.4783C66.4822 11.4783 67.9676 12.0213 69.0932 13.1074C70.237 14.1935 70.8091 15.8044 70.8091 17.9404V26.303H66.4917V18.592C66.4917 17.4335 66.2331 16.5738 65.7168 16.0126C65.2 15.4334 64.4527 15.1438 63.475 15.1438C62.3862 15.1438 61.5191 15.4786 60.8735 16.1484C60.2275 16.8 59.9049 17.7775 59.9049 19.0807V26.303H55.5875V6.15662H59.9049V13.216C60.4765 12.6549 61.1684 12.2295 61.9805 11.9399C62.7922 11.6322 63.6778 11.4783 64.6374 11.4783Z" fill="#5090F9"/>
<path d="M83.8002 10.1207C82.1397 10.1207 80.8848 10.4827 80.0359 11.2068C79.1875 11.9309 78.7632 12.9988 78.7632 14.4107V16.0398H87.2043V19.0264H78.7632V26.303H75.1654V14.4107C75.1654 12.1118 75.9126 10.3108 77.4071 9.00753C78.9198 7.68614 80.9955 7.02546 83.6342 7.02546C84.7412 7.02546 85.7743 7.14311 86.7338 7.37843C87.693 7.61376 88.5328 7.95765 89.2523 8.41019L88.1176 11.2883C86.9734 10.5099 85.5343 10.1207 83.8002 10.1207ZM96.7619 26.4931C95.2307 26.4931 94.0311 26.0858 93.1641 25.2713C92.3152 24.4386 91.891 23.2711 91.891 21.7687V6.15662H95.3505V21.5244C95.3505 22.9724 96.0424 23.6965 97.4262 23.6965C97.8876 23.6965 98.3027 23.606 98.6716 23.425L98.8376 26.1401C98.192 26.3755 97.5001 26.4931 96.7619 26.4931ZM107.56 26.4931C106.066 26.4931 104.719 26.1763 103.52 25.5428C102.32 24.9093 101.379 24.0314 100.697 22.9091C100.032 21.7687 99.7003 20.4836 99.7003 19.0536C99.7003 17.6236 100.032 16.3475 100.697 15.2252C101.379 14.103 102.32 13.225 103.52 12.5915C104.719 11.958 106.066 11.6412 107.56 11.6412C109.073 11.6412 110.429 11.958 111.629 12.5915C112.828 13.225 113.76 14.103 114.424 15.2252C115.107 16.3475 115.448 17.6236 115.448 19.0536C115.448 20.4836 115.107 21.7687 114.424 22.9091C113.76 24.0314 112.828 24.9093 111.629 25.5428C110.429 26.1763 109.073 26.4931 107.56 26.4931ZM107.56 23.5879C108.833 23.5879 109.885 23.1716 110.715 22.3389C111.546 21.5063 111.961 20.4112 111.961 19.0536C111.961 17.696 111.546 16.6009 110.715 15.7683C109.885 14.9356 108.833 14.5193 107.56 14.5193C106.287 14.5193 105.235 14.9356 104.405 15.7683C103.594 16.6009 103.187 17.696 103.187 19.0536C103.187 20.4112 103.594 21.5063 104.405 22.3389C105.235 23.1716 106.287 23.5879 107.56 23.5879ZM141.478 11.8041V19.8138C141.478 21.9316 140.915 23.5789 139.789 24.7554C138.664 25.9139 137.05 26.4931 134.946 26.4931C132.677 26.4931 131.044 25.7419 130.048 24.2395C129.531 24.9998 128.867 25.57 128.055 25.9501C127.261 26.3121 126.293 26.4931 125.149 26.4931C123.046 26.4931 121.431 25.9139 120.306 24.7554C119.199 23.5789 118.645 21.9316 118.645 19.8138V11.8041H122.105V19.5152C122.105 20.8909 122.345 21.9045 122.824 22.5561C123.322 23.2078 124.106 23.5336 125.177 23.5336C126.247 23.5336 127.04 23.2078 127.557 22.5561C128.074 21.8864 128.332 20.8727 128.332 19.5152V11.8041H131.791V19.5152C131.791 20.8727 132.049 21.8864 132.566 22.5561C133.083 23.2078 133.876 23.5336 134.946 23.5336C136.016 23.5336 136.791 23.2078 137.271 22.5561C137.769 21.9045 138.018 20.8909 138.018 19.5152V11.8041H141.478Z" fill="#141922"/>
<path d="M4.82595 31.797C5.49189 31.797 6.08865 31.9412 6.61622 32.2297C7.14379 32.5182 7.5546 32.9212 7.84865 33.4388C8.15135 33.9564 8.3027 34.5545 8.3027 35.2333C8.3027 35.9121 8.15135 36.5145 7.84865 37.0406C7.5546 37.5582 7.14379 37.9612 6.61622 38.2497C6.08865 38.5382 5.49189 38.6824 4.82595 38.6824C4.33297 38.6824 3.87892 38.5891 3.46379 38.4024C3.0573 38.2158 2.71135 37.9442 2.42595 37.5879V41.0752H1.18054V31.8606H2.37406V32.9297C2.65081 32.5564 3.00108 32.2764 3.42487 32.0897C3.84865 31.8945 4.31568 31.797 4.82595 31.797ZM4.72216 37.6133C5.16324 37.6133 5.55676 37.5158 5.9027 37.3206C6.2573 37.117 6.53406 36.837 6.73297 36.4806C6.94054 36.1158 7.04433 35.7 7.04433 35.2333C7.04433 34.7667 6.94054 34.3552 6.73297 33.9988C6.53406 33.6339 6.2573 33.3539 5.9027 33.1588C5.55676 32.9636 5.16324 32.8661 4.72216 32.8661C4.28973 32.8661 3.89622 32.9679 3.54162 33.1715C3.19568 33.3667 2.91892 33.6424 2.71135 33.9988C2.51243 34.3552 2.41297 34.7667 2.41297 35.2333C2.41297 35.7 2.51243 36.1158 2.71135 36.4806C2.91027 36.837 3.18703 37.117 3.54162 37.3206C3.89622 37.5158 4.28973 37.6133 4.72216 37.6133ZM28.7045 31.8606V38.6061H27.511V37.537C27.2343 37.9103 26.884 38.1945 26.4602 38.3897C26.0364 38.5849 25.5694 38.6824 25.0591 38.6824C24.3932 38.6824 23.7964 38.5382 23.2688 38.2497C22.7413 37.9612 22.3261 37.5582 22.0234 37.0406C21.7294 36.5145 21.5824 35.9121 21.5824 35.2333C21.5824 34.5545 21.7294 33.9564 22.0234 33.4388C22.3261 32.9212 22.7413 32.5182 23.2688 32.2297C23.7964 31.9412 24.3932 31.797 25.0591 31.797C25.5521 31.797 26.0061 31.8903 26.4213 32.077C26.8364 32.2552 27.1824 32.5224 27.4591 32.8788V31.8606H28.7045ZM25.1629 37.6133C25.5953 37.6133 25.9888 37.5158 26.3434 37.3206C26.698 37.117 26.9748 36.837 27.1737 36.4806C27.3726 36.1158 27.4721 35.7 27.4721 35.2333C27.4721 34.7667 27.3726 34.3552 27.1737 33.9988C26.9748 33.6339 26.698 33.3539 26.3434 33.1588C25.9888 32.9636 25.5953 32.8661 25.1629 32.8661C24.7218 32.8661 24.324 32.9636 23.9694 33.1588C23.6234 33.3539 23.3467 33.6339 23.1391 33.9988C22.9402 34.3552 22.8407 34.7667 22.8407 35.2333C22.8407 35.7 22.9402 36.1158 23.1391 36.4806C23.3467 36.837 23.6234 37.117 23.9694 37.3206C24.324 37.5158 24.7218 37.6133 25.1629 37.6133ZM44.4489 32.9933C44.6651 32.603 44.9851 32.3061 45.4089 32.1024C45.8326 31.8988 46.3472 31.797 46.9527 31.797V32.9806C46.8835 32.9721 46.7883 32.9679 46.6672 32.9679C45.9926 32.9679 45.4608 33.1673 45.0716 33.5661C44.691 33.9564 44.5008 34.5164 44.5008 35.2461V38.6061H43.2554V31.8606H44.4489V32.9933ZM64.3018 38.2115C64.1202 38.3642 63.8954 38.483 63.6272 38.5679C63.3591 38.6442 63.0824 38.6824 62.797 38.6824C62.1051 38.6824 61.5689 38.5 61.1883 38.1352C60.8078 37.7703 60.6175 37.2485 60.6175 36.5697V30.3842H61.8629V31.8606H63.8348V32.8661H61.8629V36.5188C61.8629 36.8836 61.9537 37.1636 62.1354 37.3588C62.3256 37.5539 62.5937 37.6515 62.9397 37.6515C63.3202 37.6515 63.6445 37.5455 63.9127 37.3333L64.3018 38.2115ZM81.6666 31.797C82.5401 31.797 83.232 32.0473 83.7423 32.5479C84.2612 33.04 84.5207 33.7655 84.5207 34.7242V38.6061H83.2753V34.8642C83.2753 34.2109 83.1152 33.7188 82.7952 33.3879C82.4753 33.057 82.0169 32.8915 81.4201 32.8915C80.7455 32.8915 80.2136 33.0867 79.8244 33.477C79.4352 33.8588 79.2407 34.4103 79.2407 35.1315V38.6061H77.9952V31.8606H79.1888V32.8788C79.4396 32.5309 79.7769 32.2636 80.2007 32.077C80.6331 31.8903 81.1217 31.797 81.6666 31.797ZM102.159 37.6133C102.98 37.6133 103.642 37.3418 104.144 36.7988L104.818 37.5879C104.515 37.9442 104.131 38.2158 103.664 38.4024C103.205 38.5891 102.691 38.6824 102.12 38.6824C101.393 38.6824 100.749 38.5382 100.187 38.2497C99.6247 37.9527 99.1879 37.5412 98.8765 37.0152C98.5738 36.4891 98.4225 35.8952 98.4225 35.2333C98.4225 34.58 98.5695 33.9903 98.8636 33.4642C99.1663 32.9382 99.5771 32.5309 100.096 32.2424C100.624 31.9455 101.216 31.797 101.873 31.797C102.496 31.797 103.062 31.937 103.573 32.217C104.083 32.4885 104.49 32.8745 104.792 33.3752C105.095 33.8758 105.251 34.4527 105.259 35.1061L99.7976 36.1497C99.9706 36.6164 100.26 36.977 100.667 37.2315C101.082 37.4861 101.579 37.6133 102.159 37.6133ZM101.873 32.8279C101.441 32.8279 101.052 32.9255 100.706 33.1206C100.368 33.3158 100.105 33.5915 99.9144 33.9479C99.7241 34.2958 99.629 34.703 99.629 35.1697V35.297L104.027 34.4824C103.914 33.9903 103.664 33.5915 103.274 33.2861C102.885 32.9806 102.418 32.8279 101.873 32.8279ZM120.39 32.9933C120.606 32.603 120.926 32.3061 121.35 32.1024C121.773 31.8988 122.288 31.797 122.893 31.797V32.9806C122.824 32.9721 122.729 32.9679 122.608 32.9679C121.933 32.9679 121.402 33.1673 121.012 33.5661C120.632 33.9564 120.442 34.5164 120.442 35.2461V38.6061H119.196V31.8606H120.39V32.9933ZM138.646 38.6824C138.083 38.6824 137.543 38.6103 137.024 38.4661C136.505 38.3133 136.099 38.1224 135.805 37.8933L136.323 36.9261C136.626 37.1382 136.994 37.3079 137.426 37.4352C137.859 37.5624 138.295 37.6261 138.736 37.6261C139.826 37.6261 140.371 37.3206 140.371 36.7097C140.371 36.5061 140.298 36.3449 140.15 36.2261C140.003 36.1073 139.818 36.0224 139.593 35.9715C139.376 35.9121 139.065 35.8485 138.659 35.7806C138.105 35.6958 137.651 35.5982 137.296 35.4879C136.95 35.3776 136.652 35.1909 136.401 34.9279C136.15 34.6649 136.025 34.2958 136.025 33.8206C136.025 33.2097 136.285 32.7218 136.803 32.357C137.322 31.9836 138.019 31.797 138.892 31.797C139.35 31.797 139.809 31.8521 140.267 31.9624C140.726 32.0727 141.102 32.2212 141.396 32.4079L140.864 33.3752C140.302 33.0188 139.64 32.8406 138.879 32.8406C138.352 32.8406 137.949 32.9255 137.673 33.0952C137.396 33.2649 137.258 33.4897 137.258 33.7697C137.258 33.9903 137.335 34.1642 137.491 34.2915C137.647 34.4188 137.837 34.5121 138.062 34.5715C138.295 34.6309 138.62 34.6988 139.035 34.7752C139.588 34.8685 140.034 34.9703 140.371 35.0806C140.717 35.1824 141.011 35.3606 141.253 35.6152C141.495 35.8697 141.616 36.2261 141.616 36.6842C141.616 37.2952 141.348 37.783 140.812 38.1479C140.285 38.5042 139.562 38.6824 138.646 38.6824Z" fill="#4A5D7E"/>
<path d="M14.5542 17.1786C14.3532 16.9237 14.0501 16.7487 13.6446 16.6535C14.1609 16.3951 14.3878 15.9566 14.3255 15.3378C14.3047 15.1135 14.2415 14.919 14.1358 14.7542C14.03 14.5893 13.8872 14.4567 13.7069 14.3565C13.5267 14.2561 13.3308 14.1797 13.1195 14.127C12.9082 14.0743 12.6656 14.0361 12.3918 14.0123V12.7273H11.5915V13.9766C11.4529 13.9766 11.2415 13.98 10.9574 13.9868V12.7273H10.157V14.0123C10.0426 14.0157 9.87454 14.0174 9.65279 14.0174L8.5509 14.0123V14.8485H9.12781C9.39116 14.8485 9.54537 14.9642 9.59038 15.1953V16.6588C9.62511 16.6588 9.65278 16.6605 9.67358 16.6639H9.59038V18.7137C9.56271 18.887 9.46221 18.9738 9.28894 18.9738H8.71211L8.55095 19.9069H9.59047C9.65633 19.9069 9.75155 19.9078 9.87635 19.9093C10.0011 19.911 10.0946 19.9119 10.157 19.9119V21.2122H10.9576V19.9272C11.1031 19.9307 11.3144 19.9323 11.5916 19.9323V21.2122H12.392V19.9119C12.6762 19.8983 12.9283 19.873 13.1482 19.8354C13.3682 19.7979 13.5788 19.7394 13.7797 19.6594C13.9807 19.5796 14.1487 19.4801 14.2838 19.3611C14.419 19.2422 14.5306 19.0909 14.6191 18.9073C14.7074 18.7237 14.7637 18.5112 14.7879 18.2698C14.8332 17.7974 14.7551 17.4336 14.5542 17.1786ZM10.973 14.9045C10.9973 14.9045 11.0657 14.9036 11.1783 14.9019C11.291 14.9001 11.3845 14.8985 11.459 14.8968C11.5335 14.8951 11.634 14.8993 11.7605 14.9095C11.887 14.9197 11.9935 14.9334 12.0801 14.9503C12.1667 14.9673 12.2621 14.9953 12.366 15.0345C12.47 15.0735 12.5531 15.1211 12.6154 15.1772C12.6778 15.2333 12.7306 15.3047 12.7739 15.3914C12.8172 15.4781 12.8389 15.5775 12.8389 15.6897C12.8389 15.7849 12.8233 15.8716 12.7922 15.9498C12.7611 16.028 12.7142 16.0934 12.6519 16.1461C12.5896 16.1988 12.5253 16.2447 12.4595 16.2838C12.3938 16.3229 12.3096 16.3543 12.2075 16.3781C12.1053 16.4019 12.0161 16.4206 11.9399 16.4342C11.8636 16.4478 11.7684 16.4572 11.654 16.4623C11.5396 16.4673 11.453 16.4708 11.3941 16.4725C11.3352 16.4741 11.2546 16.4741 11.1524 16.4725C11.0501 16.4708 10.9904 16.4699 10.973 16.4699V14.9045H10.973ZM13.1586 18.3769C13.1256 18.4552 13.0833 18.5232 13.0313 18.581C12.9793 18.6387 12.9108 18.6898 12.826 18.7339C12.7411 18.7781 12.6588 18.8138 12.5791 18.841C12.4994 18.8683 12.4032 18.892 12.2907 18.9124C12.1779 18.9328 12.0792 18.9472 11.9943 18.9558C11.9094 18.9643 11.8081 18.9711 11.6902 18.9762C11.5725 18.9812 11.4806 18.9838 11.4148 18.9838C11.349 18.9838 11.2658 18.9828 11.1653 18.9812C11.0647 18.9796 11.0007 18.9787 10.973 18.9787V17.2552C11.0006 17.2552 11.0829 17.2535 11.2198 17.25C11.3567 17.2466 11.4684 17.245 11.5551 17.245C11.6417 17.245 11.7613 17.25 11.9138 17.2603C12.0662 17.2704 12.1944 17.2857 12.2984 17.3061C12.4024 17.3265 12.5157 17.3579 12.6389 17.4004C12.7618 17.4429 12.8615 17.4947 12.9378 17.5559C13.014 17.6172 13.078 17.6953 13.13 17.7905C13.1821 17.8857 13.2081 17.9944 13.2081 18.1169C13.2081 18.2122 13.1916 18.2987 13.1586 18.3769Z" fill="#5090F9"/>
</svg>
