<svg width="20" height="20" viewBox="0 0 20 20" fill="none" xmlns="http://www.w3.org/2000/svg">
<path d="M7.15158 7.76512C7.41155 7.50515 7.41155 7.08366 7.15158 6.82369C6.89161 6.56372 6.47012 6.56372 6.21015 6.82369C5.95019 7.08366 5.95019 7.50515 6.21015 7.76512C6.47012 8.02508 6.89161 8.02508 7.15158 7.76512Z" fill="#4A5D7E"/>
<path d="M9.84999 7.96052C10.2177 7.96052 10.5158 7.66243 10.5158 7.29473C10.5158 6.92702 10.2177 6.62894 9.84999 6.62894C9.48229 6.62894 9.1842 6.92702 9.1842 7.29473C9.1842 7.66243 9.48229 7.96052 9.84999 7.96052Z" fill="#4A5D7E"/>
<path d="M11.1829 11.0105C11.467 11.0105 11.6974 10.7802 11.6974 10.496C11.6974 10.2119 11.467 9.98157 11.1829 9.98157C10.8988 9.98157 10.6684 10.2119 10.6684 10.496C10.6684 10.7802 10.8988 11.0105 11.1829 11.0105Z" fill="#4A5D7E"/>
<path d="M9.99997 0C8.02216 0 6.08876 0.58649 4.44427 1.6853C2.79978 2.78412 1.51806 4.3459 0.761179 6.17317C0.0043023 8.00043 -0.193731 10.0111 0.192121 11.9509C0.577973 13.8907 1.53038 15.6725 2.92891 17.0711C4.32743 18.4696 6.10926 19.422 8.04907 19.8079C9.98888 20.1937 11.9995 19.9957 13.8268 19.2388C15.6541 18.4819 17.2159 17.2002 18.3147 15.5557C19.4135 13.9112 20 11.9778 20 10C20 7.34784 18.9464 4.8043 17.071 2.92893C15.1957 1.05357 12.6521 0 9.99997 0V0ZM6.59603 12.3184C6.08287 12.5921 5.56971 12.8737 5.05787 13.1421C5.19997 12.6908 5.34866 12.2434 5.50655 11.7947C4.69208 11.2513 4.01971 10.4368 3.79603 9.46579C2.94471 6.19211 7.33024 3.42105 10.8513 5.40526H10.8381C11.8302 5.95395 12.6184 6.90658 12.8473 8.03684C9.78418 7.81842 7.71576 10.2737 8.51971 12.5947C7.86733 12.6145 7.21646 12.521 6.59603 12.3184ZM14.8171 14.1539C14.9487 14.5211 15.0618 14.8895 15.1737 15.2632C14.7447 15.0566 14.35 14.7776 13.9079 14.6053C11.6947 15.2461 9.82892 14.3921 9.01445 13.0421C7.26839 10.1658 11.0855 7.03158 14.4434 8.73947C16.6039 9.83684 17.1052 12.525 14.8171 14.1539Z" fill="#4A5D7E"/>
<path d="M13.7079 11.0105C13.992 11.0105 14.2224 10.7802 14.2224 10.496C14.2224 10.2119 13.992 9.98157 13.7079 9.98157C13.4238 9.98157 13.1934 10.2119 13.1934 10.496C13.1934 10.7802 13.4238 11.0105 13.7079 11.0105Z" fill="#4A5D7E"/>
</svg>
